# xmcd
#
# Track frame offsets:
# 150
# 16060
# 28805
# 42725
# 61390
# 73372
# 86210
# 99297
# 115217
# 131657
# 147020
# 168737
# 182875
# 198030
#
# Disc length: 2918 seconds
#
#
# Revision: 3
# Processed by: cddbd v1.5.2PL0 Copyright (c) Steve Scherf et al.
# Submitted via: FreeRIP 2.96 
#
DISCID=cc0b640e
DTITLE=Various Artist - Colecao Som do Brasil (O Boticário)
DYEAR=2000
DGENRE=Sertanejo
TTITLE0=Chitaozinho e Xororo - E Disso Que o Velho Gosta
TTITLE1=Rio Negro e Solimoes - Bate o Pé
TTITLE2=Tiaozinho e Alessandro - Fui Dando Porrada
TTITLE3=Chitaozinho e Xororo - Nuvem de Lagrimas
TTITLE4=Roberta Miranda - Vida Dividida
TTITLE5=Rionegro e Solimoes - To Doidão
TTITLE6=Joao Mineiro e Marciano - Quando o Amor Domina
TTITLE7=Chitaozinho e Xororo - Deixei de Ser Cowboy Por Ela
TTITLE8=Rionegro e Solimoes - A Gente se Entrega
TTITLE9=Joao Mineiro e Xororo - Viola Esta Chorada
TTITLE10=Chitaozinho e Xororo - Um Homem Quando Ama
TTITLE11=Adalberto e Adriano - Atitude
TTITLE12=Roberta Miranda - Vá Com Deus (ao vivo)
TTITLE13=Rionegro e Solimoes - Só Lembranças
EXTD=YEAR: 2000 ID3G: 2
EXTT0=
EXTT1=
EXTT2=
EXTT3=
EXTT4=
EXTT5=
EXTT6=
EXTT7=
EXTT8=
EXTT9=
EXTT10=
EXTT11=
EXTT12=
EXTT13=
PLAYORDER=
